<svg width="24" height="24" fill="none" xmlns="http://www.w3.org/2000/svg"><path d="M16.264 1H7.477A6.484 6.484 0 0 0 1 7.477v8.787a6.484 6.484 0 0 0 6.477 6.477h8.787a6.484 6.484 0 0 0 6.477-6.477V7.477A6.484 6.484 0 0 0 16.264 1Zm4.29 15.264a4.29 4.29 0 0 1-4.29 4.29H7.477a4.29 4.29 0 0 1-4.29-4.29V7.477a4.29 4.29 0 0 1 4.29-4.29h8.787a4.29 4.29 0 0 1 4.29 4.29v8.787Z" fill="#fff" stroke="#fff" stroke-width=".2"/><path d="M11.87 6.435a5.441 5.441 0 0 0-5.435 5.436 5.441 5.441 0 0 0 5.435 5.435 5.442 5.442 0 0 0 5.435-5.435 5.441 5.441 0 0 0-5.435-5.436Zm0 8.757a3.321 3.321 0 1 1 0-6.642 3.321 3.321 0 0 1 0 6.642Z" fill="#fff" stroke="#fff" stroke-width=".2"/><path d="M17.306 7.794a1.359 1.359 0 1 0 0-2.717 1.359 1.359 0 0 0 0 2.717Z" fill="#fff"/></svg>