<svg width="24" height="24" fill="none" xmlns="http://www.w3.org/2000/svg"><path d="M21.018 2H3.516A1.516 1.516 0 0 0 2 3.516v17.502a1.516 1.516 0 0 0 1.516 1.515h17.502a1.516 1.516 0 0 0 1.515-1.515V3.516A1.516 1.516 0 0 0 21.018 2ZM8.12 19.492H5.033V9.686H8.12v9.806ZM6.574 8.327a1.772 1.772 0 1 1 1.783-1.771 1.747 1.747 0 0 1-1.783 1.77ZM19.5 19.5h-3.086v-5.357c0-1.58-.671-2.067-1.538-2.067-.916 0-1.814.69-1.814 2.107V19.5H9.974V9.693h2.969v1.359h.04c.297-.603 1.341-1.634 2.934-1.634 1.723 0 3.583 1.022 3.583 4.017V19.5Z" fill="#fff"/></svg>