<svg width="51" height="52" fill="none" xmlns="http://www.w3.org/2000/svg"><path d="M25.5 48.5C37.926 48.5 48 38.426 48 26S37.926 3.5 25.5 3.5 3 13.574 3 26s10.074 22.5 22.5 22.5Z" fill="#0048CE"/><path d="m15.783 25.54 11.037-4.558c1.09-.474 4.785-1.993 4.785-1.993s1.705-.665 1.563.949c-.047.665-.426 2.99-.805 5.506l-1.184 7.453s-.095 1.092-.9 1.282c-.806.19-2.132-.665-2.37-.855-.189-.142-3.552-2.278-4.784-3.323-.331-.285-.71-.854.048-1.519a181.301 181.301 0 0 0 4.974-4.747c.568-.57 1.137-1.898-1.232-.284l-6.68 4.51s-.757.474-2.178.047c-1.421-.428-3.08-.997-3.08-.997s-1.136-.712.806-1.472Z" fill="#fff"/></svg>