<svg width="51" height="52" fill="none" xmlns="http://www.w3.org/2000/svg"><path d="M25.5 48.941C37.926 48.941 48 38.671 48 26 48 13.33 37.926 3.059 25.5 3.059S3 13.33 3 26c0 12.67 10.074 22.941 22.5 22.941Z" fill="#0048CE"/><path d="m20.101 33.661.386.232a10.42 10.42 0 0 0 5.371 1.493h.004c5.817 0 10.55-4.804 10.553-10.708a10.73 10.73 0 0 0-3.088-7.576c-1.993-2.024-4.642-3.14-7.461-3.14-5.821 0-10.555 4.803-10.557 10.707 0 2.023.557 3.994 1.613 5.699l.251.405-1.066 3.951 3.994-1.063Zm-7.042 4.124 1.801-6.676a13.008 13.008 0 0 1-1.694-6.44c.002-7.104 5.697-12.884 12.696-12.884 3.397.002 6.584 1.344 8.981 3.779 2.397 2.435 3.717 5.672 3.716 9.115-.003 7.103-5.7 12.884-12.697 12.884h-.005a12.534 12.534 0 0 1-6.067-1.569l-6.731 1.791Z" fill="#fff"/><path fill-rule="evenodd" clip-rule="evenodd" d="M23.67 20.344c-.194-.439-.398-.448-.582-.456-.15-.006-.323-.006-.495-.006a.94.94 0 0 0-.689.33c-.237.264-.904.902-.904 2.2 0 1.297.926 2.551 1.055 2.727.129.176 1.787 2.924 4.413 3.981 2.182.878 2.626.704 3.1.66.473-.044 1.528-.638 1.744-1.254.215-.616.215-1.143.15-1.254-.064-.11-.236-.176-.495-.307-.258-.132-1.528-.77-1.765-.858-.237-.088-.41-.132-.582.132s-.667.857-.817 1.033c-.151.177-.302.199-.56.067-.258-.133-1.09-.41-2.078-1.31-.768-.698-1.286-1.561-1.437-1.826-.15-.263-.016-.406.114-.538.116-.118.258-.308.387-.462.13-.154.172-.263.258-.44.086-.175.043-.33-.021-.461-.065-.132-.567-1.436-.797-1.958" fill="#fff"/></svg>