<svg width="51" height="52" viewBox="0 0 51 52" fill="none" xmlns="http://www.w3.org/2000/svg">
<path d="M25.5 48.5C37.9264 48.5 48 38.4264 48 26C48 13.5736 37.9264 3.5 25.5 3.5C13.0736 3.5 3 13.5736 3 26C3 38.4264 13.0736 48.5 25.5 48.5Z" fill="#0048CE"/>
<path d="M15.7831 25.5393L26.8204 20.9823C27.9099 20.5076 31.6048 18.9886 31.6048 18.9886C31.6048 18.9886 33.3102 18.324 33.1681 19.9379C33.1207 20.6025 32.7417 22.9285 32.3628 25.4443L31.1785 32.897C31.1785 32.897 31.0838 33.9888 30.2785 34.1786C29.4732 34.3685 28.1468 33.5141 27.9099 33.3242C27.7204 33.1818 24.3571 31.0457 23.1255 30.0014C22.7939 29.7165 22.4149 29.1469 23.1729 28.4824C24.8782 26.9159 26.9151 24.9697 28.1468 23.7355C28.7152 23.1658 29.2837 21.8367 26.9151 23.4506L20.2359 27.9602C20.2359 27.9602 19.478 28.4349 18.0568 28.0077C16.6357 27.5804 14.9778 27.0108 14.9778 27.0108C14.9778 27.0108 13.8409 26.2988 15.7831 25.5393Z" fill="white"/>
</svg>
