<svg width="51" height="52" viewBox="0 0 51 52" fill="none" xmlns="http://www.w3.org/2000/svg">
<path d="M25.5 48.9412C37.9264 48.9412 48 38.6701 48 26C48 13.33 37.9264 3.05884 25.5 3.05884C13.0736 3.05884 3 13.33 3 26C3 38.6701 13.0736 48.9412 25.5 48.9412Z" fill="#0048CE"/>
<path d="M20.1013 33.6615L20.4869 33.8934C22.1068 34.8693 23.964 35.3853 25.858 35.3864H25.8621C31.6786 35.3864 36.4125 30.5822 36.4147 24.6777C36.4156 21.8162 35.3191 19.1258 33.3267 17.1015C31.3341 15.0776 28.685 13.9623 25.8659 13.9611C20.045 13.9611 15.3111 18.7645 15.3089 24.669C15.3081 26.6923 15.8657 28.6629 16.9222 30.3677L17.1733 30.7729L16.107 34.7245L20.1013 33.6615ZM13.0588 37.7854L14.86 31.1093C13.749 29.1554 13.1646 26.9389 13.1655 24.6684C13.1682 17.5647 18.8634 11.7854 25.8623 11.7854C29.2585 11.7869 32.4463 13.1286 34.8434 15.5638C37.2403 17.9991 38.5599 21.2362 38.5588 24.6788C38.5559 31.7821 32.8595 37.5625 25.8623 37.5625C25.8618 37.5625 25.8626 37.5625 25.8623 37.5625H25.8569C23.7321 37.5618 21.6442 37.0207 19.7897 35.9941L13.0588 37.7854Z" fill="white"/>
<path fill-rule="evenodd" clip-rule="evenodd" d="M23.6695 20.3442C23.4759 19.905 23.2723 19.8962 23.0882 19.8884C22.9375 19.8819 22.7652 19.8823 22.5931 19.8823C22.4208 19.8823 22.1409 19.9483 21.9042 20.2123C21.6673 20.4762 20.9999 21.1142 20.9999 22.4117C20.9999 23.7093 21.9258 24.9631 22.0548 25.1393C22.184 25.3151 23.8421 28.063 26.4677 29.12C28.6501 29.9985 29.0942 29.8238 29.5679 29.7798C30.0415 29.7359 31.0964 29.142 31.3116 28.5261C31.5269 27.9104 31.5269 27.3825 31.4623 27.2723C31.3978 27.1624 31.2255 27.0964 30.9671 26.9646C30.7087 26.8327 29.4386 26.1946 29.2019 26.1066C28.965 26.0187 28.7928 25.9748 28.6204 26.2388C28.4482 26.5025 27.9534 27.0964 27.8027 27.2723C27.652 27.4486 27.5012 27.4706 27.2429 27.3387C26.9845 27.2063 26.1524 26.9281 25.1654 26.0298C24.3973 25.3307 23.8789 24.4675 23.7281 24.2034C23.5774 23.9397 23.712 23.7968 23.8416 23.6654C23.9576 23.5472 24.1 23.3574 24.2292 23.2035C24.3581 23.0495 24.4011 22.9396 24.4872 22.7637C24.5734 22.5876 24.5303 22.4336 24.4658 22.3017C24.4011 22.1698 23.8991 20.8656 23.6693 20.3441" fill="white"/>
</svg>
